<svg xmlns="http://www.w3.org/2000/svg" xmlns:xlink="http://www.w3.org/1999/xlink" width="42" height="42" version="1.1" viewBox="0 0 42 42"><path fill="#444" d="M5.25 8.75h31.5q0.725 0 1.237 0.513t0.513 1.237-0.513 1.237-1.237 0.513h-31.5q-0.725 0-1.237-0.513t-0.513-1.237 0.513-1.237 1.237-0.513zM5.25 29.75h31.5q0.725 0 1.237 0.513t0.513 1.237-0.513 1.237-1.237 0.513h-31.5q-0.725 0-1.237-0.513t-0.513-1.237 0.513-1.237 1.237-0.513zM5.25 19.25h31.5q0.725 0 1.237 0.513t0.513 1.237-0.513 1.237-1.237 0.513h-31.5q-0.725 0-1.237-0.513t-0.513-1.237 0.513-1.237 1.237-0.513z"/></svg>