<svg xmlns="http://www.w3.org/2000/svg" width="21.333" height="21.333" preserveAspectRatio="xMidYMid meet" version="1.0" viewBox="0 0 16 16"><metadata>Created by potrace 1.11, written by Peter Selinger 2001-2013</metadata><g fill="#000" stroke="none"><path d="M3405 6846 c-47 -15 -2779 -1587 -2813 -1619 -13 -12 -31 -35 -40 -52 -16 -28 -17 -161 -17 -1650 0 -1526 1 -1622 18 -1652 24 -44 65 -75 213 -160 88 -50 138 -73 161 -73 18 0 33 4 33 8 0 7 -272 170 -347 207 l-33 16 0 1652 0 1652 1407 810 c773 446 1420 818 1437 828 l31 18 1430 -807 c787 -443 1440 -813 1453 -821 l22 -13 -2 -1671 -3 -1671 -1025 -580 c-1492 -844 -1856 -1048 -1870 -1048 -6 0 -438 245 -959 545 l-948 545 -9 1298 c-5 713 -9 1461 -9 1661 l0 363 960 543 960 543 30 -17 c17 -10 450 -253 963 -540 l932 -524 -2 -1114 -3 -1115 -945 -535 c-520 -294 -952 -537 -961 -540 -10 -3 -170 84 -380 205 -200 115 -410 235 -466 266 l-103 57 0 1097 0 1097 466 274 c367 216 469 272 484 265 10 -5 225 -124 479 -264 l461 -255 0 -551 0 -551 -462 -269 c-254 -148 -468 -270 -475 -272 -10 -3 -13 42 -13 226 l0 229 273 155 272 155 2 324 2 324 -274 148 c-150 81 -279 147 -285 147 -7 0 -129 -71 -271 -157 l-259 -157 2 -870 3 -871 267 -153 268 -154 757 429 758 429 2 884 2 885 -302 169 c-166 93 -509 285 -763 428 l-461 259 -758 -438 -758 -438 7 -815 c3 -448 6 -1089 6 -1425 l1 -610 742 -427 c408 -235 749 -429 757 -433 9 -3 527 284 1260 698 l1245 702 3 1446 2 1445 -1251 703 c-688 386 -1256 700 -1262 698 -7 -3 -563 -323 -1237 -711 l-1225 -707 -5 -1653 -5 -1654 205 -118 c322 -185 335 -193 349 -225 7 -16 32 -42 54 -58 59 -40 1765 -1021 1804 -1037 48 -21 117 -17 166 7 35 18 2328 1314 2657 1502 119 68 157 98 176 144 12 27 14 301 14 1665 0 1612 0 1632 -20 1672 -11 23 -37 53 -58 67 -33 24 -2705 1535 -2777 1571 -46 23 -96 28 -140 14z" transform="translate(0.000000,16.000000) scale(0.002286,-0.002286)"/></g></svg>